<?xml version="1.0" encoding="UTF-8"?>
<svg id="_Слой_1" data-name="Слой 1" xmlns="http://www.w3.org/2000/svg" viewBox="0 0 996.26 472.86">
  <defs>
    <style>
      .cls-1 {
        fill: #fff;
      }

      .cls-2 {
        fill: #f91f1f;
      }

      .cls-3 {
        fill: #161616;
      }
    </style>
  </defs>
  
  <path class="cls-1" d="M375.58,157.62v73.62h-9.95v-73.62h9.95ZM411.75,157.62l-24.93,33.6,26.64,40.02h-11.45l-26-39.38,25.14-34.24h10.59ZM432.22,157.62v73.62h-9.95v-73.62h9.95ZM490.18,157.62l-1.18,8.13h-18.08v65.48h-9.95v-65.48h-18.62v-8.13h47.83ZM530.64,231.24l-4.92-18.73h-24.72l-4.92,18.73h-9.95l21.29-73.62h12.2l21.29,73.62h-10.27ZM503.03,204.7h20.65l-10.27-39.16-10.38,39.16ZM589.33,157.62l-21.19,45.26v28.36h-10.06v-28.25l-21.19-45.37h10.7l15.73,36.81,15.62-36.81h10.38ZM614.21,156.23c4.35,0,8.13.71,11.34,2.14,3.28,1.43,6.35,3.57,9.2,6.42l-5.03,5.67c-2.43-2.14-4.85-3.71-7.28-4.71-2.35-1.07-4.92-1.61-7.7-1.61-3.57,0-6.46,1-8.67,3-2.14,1.93-3.21,4.49-3.21,7.7,0,2.14.43,4,1.28,5.56.86,1.5,2.32,2.89,4.39,4.17,2.07,1.21,4.99,2.46,8.77,3.74,4.35,1.57,7.92,3.25,10.7,5.03,2.78,1.78,4.92,4.07,6.42,6.85s2.25,6.28,2.25,10.49-.96,7.99-2.89,11.34c-1.93,3.28-4.71,5.89-8.35,7.81-3.57,1.85-7.78,2.78-12.63,2.78-8.92,0-16.51-3.21-22.79-9.63l5.24-5.67c2.64,2.35,5.31,4.17,8.02,5.46,2.78,1.21,5.85,1.82,9.2,1.82,4.21,0,7.56-1.18,10.06-3.53,2.57-2.42,3.85-5.74,3.85-9.95,0-3.64-1.03-6.53-3.1-8.67-2-2.14-5.71-4.14-11.13-5.99-6.92-2.43-11.91-5.24-14.98-8.45-3-3.21-4.49-7.38-4.49-12.52,0-3.64.89-6.92,2.67-9.84,1.85-3,4.42-5.31,7.7-6.96,3.28-1.64,6.99-2.46,11.13-2.46ZM659.8,157.62v73.62h-9.95v-73.62h9.95ZM695.97,157.62l-24.93,33.6,26.64,40.02h-11.45l-26-39.38,25.15-34.24h10.59ZM716.44,157.62v73.62h-9.95v-73.62h9.95ZM771.08,157.62l-1.18,7.7h-25.47v24.29h22.15v7.7h-22.15v26.11h26.96v7.81h-36.91v-73.62h36.59ZM382.32,241.62c8.85,0,15.59,1.89,20.22,5.67,4.64,3.78,6.95,9.45,6.95,17.01,0,7.99-2.39,13.95-7.17,17.87-4.71,3.85-11.27,5.78-19.69,5.78h-7.06v27.29h-9.95v-73.62h16.69ZM382.32,280.25c5.64,0,9.84-1.18,12.63-3.53,2.78-2.35,4.17-6.46,4.17-12.31,0-5.35-1.39-9.2-4.17-11.56-2.71-2.42-6.88-3.64-12.52-3.64h-6.85v31.03h6.74ZM457.8,315.24l-15.84-31.35h-10.38v31.35h-9.95v-73.62h17.23c17.55,0,26.32,6.92,26.32,20.76,0,4.85-1.18,8.95-3.53,12.3-2.35,3.35-5.81,5.81-10.38,7.38l17.55,33.17h-11.02ZM439.61,276.29c5.14,0,8.95-1.11,11.45-3.32,2.5-2.28,3.74-5.81,3.74-10.59,0-4.49-1.28-7.81-3.85-9.95-2.5-2.14-6.6-3.21-12.3-3.21h-7.06v27.07h8.03ZM516.54,241.62l-1.18,7.7h-25.47v24.29h22.15v7.7h-22.15v26.11h26.96v7.81h-36.91v-73.62h36.59ZM546.79,241.62c8.85,0,15.59,1.89,20.22,5.67,4.64,3.78,6.95,9.45,6.95,17.01,0,7.99-2.39,13.95-7.17,17.87-4.71,3.85-11.27,5.78-19.69,5.78h-7.06v27.29h-9.95v-73.62h16.69ZM546.79,280.25c5.64,0,9.84-1.18,12.63-3.53,2.78-2.35,4.17-6.46,4.17-12.31,0-5.35-1.39-9.2-4.17-11.56-2.71-2.42-6.88-3.64-12.52-3.64h-6.85v31.03h6.74ZM615.9,315.24l-4.92-18.73h-24.72l-4.92,18.73h-9.95l21.29-73.62h12.2l21.29,73.62h-10.27ZM588.29,288.7h20.65l-10.27-39.16-10.38,39.16ZM672.22,315.24l-15.84-31.35h-10.38v31.35h-9.95v-73.62h17.23c17.55,0,26.32,6.92,26.32,20.76,0,4.85-1.18,8.95-3.53,12.3-2.35,3.35-5.81,5.81-10.38,7.38l17.55,33.17h-11.02ZM654.03,276.29c5.14,0,8.95-1.11,11.45-3.32,2.5-2.28,3.74-5.81,3.74-10.59,0-4.49-1.28-7.81-3.85-9.95-2.5-2.14-6.6-3.21-12.3-3.21h-7.06v27.07h8.03ZM730.53,315.24l-4.92-18.73h-24.72l-4.92,18.73h-9.95l21.29-73.62h12.2l21.29,73.62h-10.27ZM702.92,288.7h20.65l-10.27-39.16-10.38,39.16ZM785.27,241.62l-1.18,8.13h-18.08v65.48h-9.95v-65.48h-18.62v-8.13h47.83ZM838.65,241.62l-21.19,45.26v28.36h-10.06v-28.25l-21.19-45.37h10.7l15.73,36.81,15.62-36.81h10.38Z"/>
  <g>
    <polygon class="cls-2" points="210.01 157.63 157.54 157.63 157.54 210.65 210.01 157.63"/>
    <polygon class="cls-2" points="235.62 157.63 157.62 236.44 157.62 236.44 235.62 315.25 235.62 315.25 235.62 157.63 235.62 157.63"/>
    <polygon class="cls-2" points="157.54 262.23 157.54 315.25 210.01 315.25 157.54 262.23"/>
    <path class="cls-2" d="M253.82,157.63v157.62h8.8c29.02,0,52.54-23.52,52.54-52.54v-105.08h-61.33Z"/>
  </g>
</svg>